<?xml version="1.0" encoding="UTF-8"?>
<!DOCTYPE svg PUBLIC "-//W3C//DTD SVG 1.1//EN" "http://www.w3.org/Graphics/SVG/1.1/DTD/svg11.dtd">
<svg xmlns="http://www.w3.org/2000/svg" version="1.1" width="200px" height="200px" style="shape-rendering:geometricPrecision; text-rendering:geometricPrecision; image-rendering:optimizeQuality; fill-rule:evenodd; clip-rule:evenodd" xmlns:xlink="http://www.w3.org/1999/xlink">
<g><path style="opacity:1" fill="#fefefe" d="M -0.5,-0.5 C 66.1667,-0.5 132.833,-0.5 199.5,-0.5C 199.5,66.1667 199.5,132.833 199.5,199.5C 132.833,199.5 66.1667,199.5 -0.5,199.5C -0.5,132.833 -0.5,66.1667 -0.5,-0.5 Z"/></g>
<g><path style="opacity:1" fill="#ecf0f5" d="M 126.5,9.5 C 125.167,9.5 123.833,9.5 122.5,9.5C 122.167,9.5 121.833,9.5 121.5,9.5C 120.313,7.02458 118.313,6.02458 115.5,6.5C 114.833,6.5 114.167,6.5 113.5,6.5C 107.053,5.06403 100.386,4.39736 93.5,4.5C 94.6161,2.49236 96.4494,1.49236 99,1.5C 105.793,2.88461 112.627,4.05127 119.5,5C 121.753,6.78139 124.086,8.28139 126.5,9.5 Z"/></g>
<g><path style="opacity:1" fill="#b5c7db" d="M 93.5,4.5 C 100.386,4.39736 107.053,5.06403 113.5,6.5C 103.5,6.5 93.5,6.5 83.5,6.5C 86.8333,5.83333 90.1667,5.16667 93.5,4.5 Z"/></g>
<g><path style="opacity:1" fill="#89aacb" d="M 83.5,6.5 C 93.5,6.5 103.5,6.5 113.5,6.5C 115.455,8.70557 117.788,10.3722 120.5,11.5C 117.257,11.0857 114.257,10.0857 111.5,8.5C 103.684,7.50761 95.6841,7.17428 87.5,7.5C 84.2029,9.63967 80.5362,10.973 76.5,11.5C 78.7331,9.65191 81.0664,7.98524 83.5,6.5 Z"/></g>
<g><path style="opacity:1" fill="#5691c0" d="M 87.5,7.5 C 95.6841,7.17428 103.684,7.50761 111.5,8.5C 104.73,8.51965 97.897,8.85299 91,9.5C 89.3189,9.39174 88.1522,8.72507 87.5,7.5 Z"/></g>
<g><path style="opacity:1" fill="#c9d5e4" d="M 115.5,6.5 C 118.313,6.02458 120.313,7.02458 121.5,9.5C 119.033,9.24512 117.033,8.24512 115.5,6.5 Z"/></g>
<g><path style="opacity:1" fill="#eaeef4" d="M 93.5,4.5 C 90.1667,5.16667 86.8333,5.83333 83.5,6.5C 79.3998,8.47864 75.0665,9.97864 70.5,11C 67.8384,13.9847 64.8384,16.4847 61.5,18.5C 61.2965,16.6096 61.9632,15.1096 63.5,14C 68.3343,10.7484 73.3343,7.74845 78.5,5C 83.4889,4.50074 88.4889,4.33407 93.5,4.5 Z"/></g>
<g><path style="opacity:1" fill="#5e9ac7" d="M 87.5,7.5 C 88.1522,8.72507 89.3189,9.39174 91,9.5C 97.897,8.85299 104.73,8.51965 111.5,8.5C 114.257,10.0857 117.257,11.0857 120.5,11.5C 121.5,11.5 122.5,11.5 123.5,11.5C 125.071,15.5029 128.071,17.6696 132.5,18C 133.823,18.8159 134.489,19.9826 134.5,21.5C 128.396,18.5705 122.396,15.4038 116.5,12C 114.934,11.235 113.601,11.4017 112.5,12.5C 103.52,9.89208 94.5195,9.89208 85.5,12.5C 81.8333,12.5 78.1667,12.5 74.5,12.5C 74.5,12.1667 74.5,11.8333 74.5,11.5C 75.1667,11.5 75.8333,11.5 76.5,11.5C 80.5362,10.973 84.2029,9.63967 87.5,7.5 Z"/></g>
<g><path style="opacity:1" fill="#a5bcd5" d="M 113.5,6.5 C 114.167,6.5 114.833,6.5 115.5,6.5C 117.033,8.24512 119.033,9.24512 121.5,9.5C 121.833,9.5 122.167,9.5 122.5,9.5C 122.833,10.1667 123.167,10.8333 123.5,11.5C 122.5,11.5 121.5,11.5 120.5,11.5C 117.788,10.3722 115.455,8.70557 113.5,6.5 Z"/></g>
<g><path style="opacity:1" fill="#559fd2" d="M 112.5,12.5 C 115.476,14.6642 118.809,16.1642 122.5,17C 126.935,20.052 131.269,23.2187 135.5,26.5C 137.784,28.6831 139.118,31.3497 139.5,34.5C 136.623,33.7891 134.957,31.9557 134.5,29C 129.733,26.6255 125.067,23.9588 120.5,21C 113.832,19.3855 107.165,17.8855 100.5,16.5C 99.5,16.5 98.5,16.5 97.5,16.5C 90.835,17.8855 84.1683,19.3855 77.5,21C 72.9335,23.9588 68.2668,26.6255 63.5,29C 62.8095,30.0674 62.3095,31.2341 62,32.5C 61.3292,33.2524 60.4959,33.5858 59.5,33.5C 59.5903,28.8195 61.9236,25.9861 66.5,25C 70.9646,19.2629 76.7979,15.7629 84,14.5C 85.0299,14.1639 85.5299,13.4972 85.5,12.5C 94.5195,9.89208 103.52,9.89208 112.5,12.5 Z"/></g>
<g><path style="opacity:1" fill="#acc0d7" d="M 72.5,12.5 C 71.7377,14.2624 70.4044,15.2624 68.5,15.5C 69.2623,13.7376 70.5956,12.7376 72.5,12.5 Z"/></g>
<g><path style="opacity:1" fill="#d2dbe7" d="M 122.5,9.5 C 123.833,9.5 125.167,9.5 126.5,9.5C 127.968,10.8057 129.301,12.3057 130.5,14C 133.833,16 137.167,18 140.5,20C 142.734,21.6379 144.067,23.8045 144.5,26.5C 142.696,24.5047 140.696,22.8381 138.5,21.5C 138.167,21.5 137.833,21.5 137.5,21.5C 133.74,16.9109 129.073,13.5776 123.5,11.5C 123.167,10.8333 122.833,10.1667 122.5,9.5 Z"/></g>
<g><path style="opacity:1" fill="#4e9ad0" d="M 97.5,16.5 C 91.6576,19.6572 85.3242,21.6572 78.5,22.5C 73.9658,24.7949 69.6325,27.4615 65.5,30.5C 61.6061,34.6077 57.9394,38.941 54.5,43.5C 53.6326,46.9353 52.466,50.2686 51,53.5C 50.2303,54.5981 49.397,54.5981 48.5,53.5C 48.8333,49.5 49.1667,45.5 49.5,41.5C 50.1667,41.5 50.5,41.1667 50.5,40.5C 53.7115,38.3693 56.7115,36.036 59.5,33.5C 60.4959,33.5858 61.3292,33.2524 62,32.5C 62.3095,31.2341 62.8095,30.0674 63.5,29C 68.2668,26.6255 72.9335,23.9588 77.5,21C 84.1683,19.3855 90.835,17.8855 97.5,16.5 Z"/></g>
<g><path style="opacity:1" fill="#4696cf" d="M 97.5,16.5 C 98.5,16.5 99.5,16.5 100.5,16.5C 106.286,19.7496 112.62,21.5829 119.5,22C 123.897,24.7424 128.23,27.5758 132.5,30.5C 136.394,34.6077 140.061,38.941 143.5,43.5C 144.27,47.1616 145.603,50.495 147.5,53.5C 147.938,54.5063 148.604,54.5063 149.5,53.5C 151.529,58.416 151.862,63.416 150.5,68.5C 148.087,60.9586 145.587,53.2919 143,45.5C 139.381,41.0437 135.548,36.7103 131.5,32.5C 123.28,30.5496 114.947,30.0496 106.5,31C 109.85,31.2501 113.017,32.0835 116,33.5C 116.333,34.5 116.667,35.5 117,36.5C 126.621,44.6941 130.287,55.0274 128,67.5C 126.148,70.1646 123.981,73.1646 121.5,76.5C 121.5,75.1667 121.5,73.8333 121.5,72.5C 122.458,72.0472 123.292,71.3805 124,70.5C 124.948,64.6547 124.448,58.988 122.5,53.5C 123.873,53.6567 125.207,53.49 126.5,53C 125.004,48.1825 122.671,43.8492 119.5,40C 115.984,38.7441 112.984,36.7441 110.5,34C 102.833,32 95.1667,32 87.5,34C 85.1911,36.4866 82.5244,38.4866 79.5,40C 77.724,43.4411 75.5574,46.6078 73,49.5C 72.1231,51.6742 72.6231,53.3409 74.5,54.5C 74.5,54.8333 74.5,55.1667 74.5,55.5C 73.7321,56.2625 73.2321,57.2625 73,58.5C 72.5017,61.8168 72.335,65.1501 72.5,68.5C 71.2749,67.8478 70.6083,66.6811 70.5,65C 72.0971,61.4638 71.7638,58.1305 69.5,55C 70.9996,51.5703 72.4996,48.0703 74,44.5C 76.5109,40.3376 79.3442,36.5043 82.5,33C 85.4245,32.0124 88.4245,31.3457 91.5,31C 83.4452,30.1784 75.4452,30.5117 67.5,32C 62.9657,36.1994 58.799,40.6994 55,45.5C 52.4132,53.2919 49.9132,60.9586 47.5,68.5C 46.1377,63.416 46.4711,58.416 48.5,53.5C 49.397,54.5981 50.2303,54.5981 51,53.5C 52.466,50.2686 53.6326,46.9353 54.5,43.5C 57.9394,38.941 61.6061,34.6077 65.5,30.5C 69.6325,27.4615 73.9658,24.7949 78.5,22.5C 85.3242,21.6572 91.6576,19.6572 97.5,16.5 Z"/></g>
<g><path style="opacity:1" fill="#4e9ad1" d="M 100.5,16.5 C 107.165,17.8855 113.832,19.3855 120.5,21C 125.067,23.9588 129.733,26.6255 134.5,29C 134.957,31.9557 136.623,33.7891 139.5,34.5C 142.351,35.828 144.018,38.1614 144.5,41.5C 145.242,42.2868 146.075,42.9535 147,43.5C 147.498,46.8168 147.665,50.1501 147.5,53.5C 145.603,50.495 144.27,47.1616 143.5,43.5C 140.061,38.941 136.394,34.6077 132.5,30.5C 128.23,27.5758 123.897,24.7424 119.5,22C 112.62,21.5829 106.286,19.7496 100.5,16.5 Z"/></g>
<g><path style="opacity:1" fill="#becdde" d="M 83.5,6.5 C 81.0664,7.98524 78.7331,9.65191 76.5,11.5C 75.8333,11.5 75.1667,11.5 74.5,11.5C 73.8333,11.8333 73.1667,12.1667 72.5,12.5C 70.5956,12.7376 69.2623,13.7376 68.5,15.5C 65.8763,17.1011 63.2096,18.7678 60.5,20.5C 60.1667,20.5 59.8333,20.5 59.5,20.5C 59.8333,19.8333 60.1667,19.1667 60.5,18.5C 60.8333,18.5 61.1667,18.5 61.5,18.5C 64.8384,16.4847 67.8384,13.9847 70.5,11C 75.0665,9.97864 79.3998,8.47864 83.5,6.5 Z"/></g>
<g><path style="opacity:1" fill="#9bb5d0" d="M 123.5,11.5 C 129.073,13.5776 133.74,16.9109 137.5,21.5C 136.5,21.5 135.5,21.5 134.5,21.5C 134.489,19.9826 133.823,18.8159 132.5,18C 128.071,17.6696 125.071,15.5029 123.5,11.5 Z"/></g>
<g><path style="opacity:1" fill="#8caccb" d="M 74.5,11.5 C 74.5,11.8333 74.5,12.1667 74.5,12.5C 73.3995,13.6049 72.7329,14.9382 72.5,16.5C 68.3256,16.6586 64.9922,18.3253 62.5,21.5C 61.8333,21.5 61.1667,21.5 60.5,21.5C 60.5,21.1667 60.5,20.8333 60.5,20.5C 63.2096,18.7678 65.8763,17.1011 68.5,15.5C 70.4044,15.2624 71.7377,14.2624 72.5,12.5C 73.1667,12.1667 73.8333,11.8333 74.5,11.5 Z"/></g>
<g><path style="opacity:1" fill="#f2f4f7" d="M 126.5,9.5 C 133.001,13.1372 139.168,17.4706 145,22.5C 146.009,24.0249 146.509,25.6916 146.5,27.5C 145.833,27.1667 145.167,26.8333 144.5,26.5C 144.067,23.8045 142.734,21.6379 140.5,20C 137.167,18 133.833,16 130.5,14C 129.301,12.3057 127.968,10.8057 126.5,9.5 Z"/></g>
<g><path style="opacity:1" fill="#6a9cc5" d="M 72.5,16.5 C 70.0174,19.7414 66.6841,21.4081 62.5,21.5C 64.9922,18.3253 68.3256,16.6586 72.5,16.5 Z"/></g>
<g><path style="opacity:1" fill="#ebeff4" d="M 60.5,18.5 C 60.1667,19.1667 59.8333,19.8333 59.5,20.5C 58.8333,20.5 58.5,20.8333 58.5,21.5C 57.7611,21.369 57.0944,21.5357 56.5,22C 54.9697,24.352 53.3031,26.5187 51.5,28.5C 52.4039,23.2635 55.4039,19.9302 60.5,18.5 Z"/></g>
<g><path style="opacity:1" fill="#a6bbd3" d="M 59.5,20.5 C 59.8333,20.5 60.1667,20.5 60.5,20.5C 60.5,20.8333 60.5,21.1667 60.5,21.5C 59.5275,23.1392 58.1942,24.4726 56.5,25.5C 56.7329,23.9382 57.3995,22.6049 58.5,21.5C 58.5,20.8333 58.8333,20.5 59.5,20.5 Z"/></g>
<g><path style="opacity:1" fill="#5596c7" d="M 74.5,12.5 C 78.1667,12.5 81.8333,12.5 85.5,12.5C 85.5299,13.4972 85.0299,14.1639 84,14.5C 76.7979,15.7629 70.9646,19.2629 66.5,25C 61.9236,25.9861 59.5903,28.8195 59.5,33.5C 56.7115,36.036 53.7115,38.3693 50.5,40.5C 50.5,39.1667 50.5,37.8333 50.5,36.5C 50.5,36.1667 50.5,35.8333 50.5,35.5C 52.3904,35.7035 53.8904,35.0368 55,33.5C 55.4966,31.1902 55.6633,28.8568 55.5,26.5C 55.5,25.8333 55.8333,25.5 56.5,25.5C 58.1942,24.4726 59.5275,23.1392 60.5,21.5C 61.1667,21.5 61.8333,21.5 62.5,21.5C 66.6841,21.4081 70.0174,19.7414 72.5,16.5C 72.7329,14.9382 73.3995,13.6049 74.5,12.5 Z"/></g>
<g><path style="opacity:1" fill="#96b0cd" d="M 138.5,21.5 C 140.696,22.8381 142.696,24.5047 144.5,26.5C 146.043,28.9278 147.043,31.5944 147.5,34.5C 145.482,32.4717 143.815,30.1383 142.5,27.5C 141.739,26.6091 140.739,25.9424 139.5,25.5C 138.571,24.3112 138.238,22.9778 138.5,21.5 Z"/></g>
<g><path style="opacity:1" fill="#5497c9" d="M 112.5,12.5 C 113.601,11.4017 114.934,11.235 116.5,12C 122.396,15.4038 128.396,18.5705 134.5,21.5C 135.5,21.5 136.5,21.5 137.5,21.5C 137.833,21.5 138.167,21.5 138.5,21.5C 138.238,22.9778 138.571,24.3112 139.5,25.5C 140.739,25.9424 141.739,26.6091 142.5,27.5C 142.56,30.3408 143.226,33.0075 144.5,35.5C 144.378,38.2574 145.545,40.2574 148,41.5C 148.828,45.466 149.328,49.466 149.5,53.5C 148.604,54.5063 147.938,54.5063 147.5,53.5C 147.665,50.1501 147.498,46.8168 147,43.5C 146.075,42.9535 145.242,42.2868 144.5,41.5C 144.018,38.1614 142.351,35.828 139.5,34.5C 139.118,31.3497 137.784,28.6831 135.5,26.5C 131.269,23.2187 126.935,20.052 122.5,17C 118.809,16.1642 115.476,14.6642 112.5,12.5 Z"/></g>
<g><path style="opacity:1" fill="#9fb6d0" d="M 54.5,27.5 C 54.3775,30.2921 53.0442,32.2921 50.5,33.5C 51.4486,31.2228 52.7819,29.2228 54.5,27.5 Z"/></g>
<g><path style="opacity:1" fill="#4192ce" d="M 72.5,68.5 C 73.0312,70.5441 74.1978,72.2107 76,73.5C 76.3333,75.5 76.6667,77.5 77,79.5C 79.3353,81.4002 81.502,83.4002 83.5,85.5C 81.549,85.7733 80.049,85.1066 79,83.5C 78.6667,83.8333 78.3333,84.1667 78,84.5C 70.4293,76.7396 66.2626,67.4063 65.5,56.5C 62.1667,56.5 58.8333,56.5 55.5,56.5C 53.711,59.5387 52.711,62.8721 52.5,66.5C 53.4604,72.1486 53.6271,77.8153 53,83.5C 52.7645,85.1193 51.9311,86.1193 50.5,86.5C 50.5,85.8333 50.1667,85.5 49.5,85.5C 49.4026,79.7232 48.7359,74.0566 47.5,68.5C 49.9132,60.9586 52.4132,53.2919 55,45.5C 58.799,40.6994 62.9657,36.1994 67.5,32C 75.4452,30.5117 83.4452,30.1784 91.5,31C 88.4245,31.3457 85.4245,32.0124 82.5,33C 79.3442,36.5043 76.5109,40.3376 74,44.5C 72.4996,48.0703 70.9996,51.5703 69.5,55C 71.7638,58.1305 72.0971,61.4638 70.5,65C 70.6083,66.6811 71.2749,67.8478 72.5,68.5 Z"/></g>
<g><path style="opacity:1" fill="#4192ce" d="M 150.5,68.5 C 149.586,74.6803 148.252,80.6803 146.5,86.5C 144.994,83.644 144.328,80.4774 144.5,77C 145.127,72.1642 145.294,67.3308 145,62.5C 143.878,60.5795 143.044,58.5795 142.5,56.5C 139.167,56.5 135.833,56.5 132.5,56.5C 131.593,62.8508 130.593,69.1841 129.5,75.5C 128.325,75.281 127.325,75.6143 126.5,76.5C 126.063,79.225 124.73,81.225 122.5,82.5C 121.728,83.6935 120.728,84.6935 119.5,85.5C 117.901,85.7678 116.568,85.4345 115.5,84.5C 116.833,83.1667 118.167,81.8333 119.5,80.5C 119.66,78.847 120.326,77.5137 121.5,76.5C 123.981,73.1646 126.148,70.1646 128,67.5C 130.287,55.0274 126.621,44.6941 117,36.5C 116.667,35.5 116.333,34.5 116,33.5C 113.017,32.0835 109.85,31.2501 106.5,31C 114.947,30.0496 123.28,30.5496 131.5,32.5C 135.548,36.7103 139.381,41.0437 143,45.5C 145.587,53.2919 148.087,60.9586 150.5,68.5 Z"/></g>
<g><path style="opacity:1" fill="#4f99cf" d="M 122.5,53.5 C 115.466,38.9958 104.132,34.3291 88.5,39.5C 84.6173,42.3675 80.7839,45.3675 77,48.5C 76.7599,50.8516 75.9265,52.8516 74.5,54.5C 72.6231,53.3409 72.1231,51.6742 73,49.5C 75.5574,46.6078 77.724,43.4411 79.5,40C 82.5244,38.4866 85.1911,36.4866 87.5,34C 95.1667,32 102.833,32 110.5,34C 112.984,36.7441 115.984,38.7441 119.5,40C 122.671,43.8492 125.004,48.1825 126.5,53C 125.207,53.49 123.873,53.6567 122.5,53.5 Z"/></g>
<g><path style="opacity:1" fill="#739ec4" d="M 55.5,26.5 C 55.6633,28.8568 55.4966,31.1902 55,33.5C 53.8904,35.0368 52.3904,35.7035 50.5,35.5C 50.5,35.1667 50.5,34.8333 50.5,34.5C 50.5,34.1667 50.5,33.8333 50.5,33.5C 53.0442,32.2921 54.3775,30.2921 54.5,27.5C 54.5,26.8333 54.8333,26.5 55.5,26.5 Z"/></g>
<g><path style="opacity:1" fill="#cdd7e3" d="M 144.5,26.5 C 145.167,26.8333 145.833,27.1667 146.5,27.5C 147.89,28.8993 148.89,30.5659 149.5,32.5C 150.833,34.8333 152.167,37.1667 153.5,39.5C 152.167,38.5 150.833,37.5 149.5,36.5C 148.833,35.8333 148.167,35.1667 147.5,34.5C 147.043,31.5944 146.043,28.9278 144.5,26.5 Z"/></g>
<g><path style="opacity:1" fill="#eff2f5" d="M 149.5,32.5 C 154.026,34.2041 156.026,37.5375 155.5,42.5C 154.833,41.5 154.167,40.5 153.5,39.5C 152.167,37.1667 150.833,34.8333 149.5,32.5 Z"/></g>
<g><path style="opacity:1" fill="#eef1f4" d="M 51.5,28.5 C 49.4574,32.4189 46.9574,36.0856 44,39.5C 43.5065,41.1341 43.3398,42.8008 43.5,44.5C 40.925,46.8453 39.925,49.8453 40.5,53.5C 39.5093,59.979 39.176,66.6457 39.5,73.5C 39.8726,76.5739 40.5392,79.5739 41.5,82.5C 40.0337,81.653 39.2004,80.3197 39,78.5C 38.3333,68.8333 38.3333,59.1667 39,49.5C 41.1166,44.9352 42.9499,40.2685 44.5,35.5C 46.6365,34.5276 47.8032,32.8609 48,30.5C 48.8159,29.1772 49.9826,28.5106 51.5,28.5 Z"/></g>
<g><path style="opacity:1" fill="#c1cedd" d="M 58.5,21.5 C 57.3995,22.6049 56.7329,23.9382 56.5,25.5C 55.8333,25.5 55.5,25.8333 55.5,26.5C 54.8333,26.5 54.5,26.8333 54.5,27.5C 52.7819,29.2228 51.4486,31.2228 50.5,33.5C 50.5,33.8333 50.5,34.1667 50.5,34.5C 48.9013,36.6038 47.068,38.6038 45,40.5C 44.6667,43.5 44.3333,46.5 44,49.5C 43.7216,50.4158 43.2216,51.0825 42.5,51.5C 42.9926,49.1944 43.3259,46.861 43.5,44.5C 43.3398,42.8008 43.5065,41.1341 44,39.5C 46.9574,36.0856 49.4574,32.4189 51.5,28.5C 53.3031,26.5187 54.9697,24.352 56.5,22C 57.0944,21.5357 57.7611,21.369 58.5,21.5 Z"/></g>
<g><path style="opacity:1" fill="#79a0c4" d="M 142.5,27.5 C 143.815,30.1383 145.482,32.4717 147.5,34.5C 148.167,35.1667 148.833,35.8333 149.5,36.5C 149.733,38.0618 150.4,39.3951 151.5,40.5C 148.53,40.2542 147.197,38.5876 147.5,35.5C 146.5,35.5 145.5,35.5 144.5,35.5C 143.226,33.0075 142.56,30.3408 142.5,27.5 Z"/></g>
<g><path style="opacity:1" fill="#a8bbd1" d="M 149.5,36.5 C 150.833,37.5 152.167,38.5 153.5,39.5C 153.5,41.1667 153.5,42.8333 153.5,44.5C 153.167,44.5 152.833,44.5 152.5,44.5C 152.768,42.901 152.434,41.5676 151.5,40.5C 150.4,39.3951 149.733,38.0618 149.5,36.5 Z"/></g>
<g><path style="opacity:1" fill="#97afca" d="M 50.5,34.5 C 50.5,34.8333 50.5,35.1667 50.5,35.5C 50.5,35.8333 50.5,36.1667 50.5,36.5C 45.9716,39.9798 44.305,44.6465 45.5,50.5C 44.3127,52.0725 43.3127,53.7392 42.5,55.5C 42.5,54.1667 42.5,52.8333 42.5,51.5C 43.2216,51.0825 43.7216,50.4158 44,49.5C 44.3333,46.5 44.6667,43.5 45,40.5C 47.068,38.6038 48.9013,36.6038 50.5,34.5 Z"/></g>
<g><path style="opacity:1" fill="#5590be" d="M 144.5,35.5 C 145.5,35.5 146.5,35.5 147.5,35.5C 147.197,38.5876 148.53,40.2542 151.5,40.5C 152.434,41.5676 152.768,42.901 152.5,44.5C 152.5,47.5 152.5,50.5 152.5,53.5C 151.5,53.5 150.5,53.5 149.5,53.5C 149.328,49.466 148.828,45.466 148,41.5C 145.545,40.2574 144.378,38.2574 144.5,35.5 Z"/></g>
<g><path style="opacity:1" fill="#eaf0f4" d="M 108.5,47.5 C 109.167,47.5 109.833,47.5 110.5,47.5C 110.557,48.609 110.89,49.609 111.5,50.5C 106.972,48.9347 102.472,47.268 98,45.5C 95.3286,47.7877 92.1619,49.2877 88.5,50C 86.6411,51.5578 85.1411,53.3911 84,55.5C 83.5006,60.8229 83.334,66.1563 83.5,71.5C 82.5119,66.3595 82.1786,61.0262 82.5,55.5C 83.7945,53.093 85.4611,50.9263 87.5,49C 90.29,48.4391 92.6234,47.1058 94.5,45C 99.4988,44.2529 104.165,45.0863 108.5,47.5 Z"/></g>
<g><path style="opacity:1" fill="#fdfefe" d="M 111.5,50.5 C 113.167,51.5 114.5,52.8333 115.5,54.5C 116.002,61.6768 115.335,68.6768 113.5,75.5C 110.153,75.783 107.487,77.283 105.5,80C 101.5,80.6667 97.5,80.6667 93.5,80C 90.7777,77.6422 87.7777,75.8089 84.5,74.5C 84.5,73.8333 84.1667,73.5 83.5,73.5C 83.5,72.8333 83.5,72.1667 83.5,71.5C 83.334,66.1563 83.5006,60.8229 84,55.5C 85.1411,53.3911 86.6411,51.5578 88.5,50C 92.1619,49.2877 95.3286,47.7877 98,45.5C 102.472,47.268 106.972,48.9347 111.5,50.5 Z"/></g>
<g><path style="opacity:1" fill="#d4dce6" d="M 153.5,39.5 C 154.167,40.5 154.833,41.5 155.5,42.5C 155.5,43.8333 155.5,45.1667 155.5,46.5C 154.833,45.8333 154.167,45.1667 153.5,44.5C 153.5,42.8333 153.5,41.1667 153.5,39.5 Z"/></g>
<g><path style="opacity:1" fill="#d9dfe8" d="M 43.5,44.5 C 43.3259,46.861 42.9926,49.1944 42.5,51.5C 41.8333,52.1667 41.1667,52.8333 40.5,53.5C 39.925,49.8453 40.925,46.8453 43.5,44.5 Z"/></g>
<g><path style="opacity:1" fill="#5990bb" d="M 50.5,36.5 C 50.5,37.8333 50.5,39.1667 50.5,40.5C 50.5,41.1667 50.1667,41.5 49.5,41.5C 48.4763,45.5914 47.1429,49.5914 45.5,53.5C 45.5,52.5 45.5,51.5 45.5,50.5C 44.305,44.6465 45.9716,39.9798 50.5,36.5 Z"/></g>
<g><path style="opacity:1" fill="#4c8ebe" d="M 122.5,53.5 C 124.448,58.988 124.948,64.6547 124,70.5C 123.292,71.3805 122.458,72.0472 121.5,72.5C 122.481,67.8708 122.648,63.2041 122,58.5C 121.004,54.5231 119.504,50.8564 117.5,47.5C 115.833,47.5 114.167,47.5 112.5,47.5C 112.548,44.7081 111.215,42.8747 108.5,42C 103.648,41.1849 98.9811,41.3516 94.5,42.5C 90.1288,41.5341 87.1288,43.0341 85.5,47C 82.5529,47.1118 81.2196,48.6118 81.5,51.5C 80.8333,51.5 80.5,51.8333 80.5,52.5C 77.214,57.1851 75.8806,62.5185 76.5,68.5C 75.8333,64.1667 75.1667,59.8333 74.5,55.5C 74.5,55.1667 74.5,54.8333 74.5,54.5C 75.9265,52.8516 76.7599,50.8516 77,48.5C 80.7839,45.3675 84.6173,42.3675 88.5,39.5C 104.132,34.3291 115.466,38.9958 122.5,53.5 Z"/></g>
<g><path style="opacity:1" fill="#9ebcd3" d="M 106.5,44.5 C 108.404,44.7376 109.738,45.7376 110.5,47.5C 109.833,47.5 109.167,47.5 108.5,47.5C 107.833,46.5 107.167,45.5 106.5,44.5 Z"/></g>
<g><path style="opacity:1" fill="#c2d2e1" d="M 94.5,43.5 C 98.5662,43.307 102.566,43.6403 106.5,44.5C 107.167,45.5 107.833,46.5 108.5,47.5C 104.165,45.0863 99.4988,44.2529 94.5,45C 92.6234,47.1058 90.29,48.4391 87.5,49C 85.4611,50.9263 83.7945,53.093 82.5,55.5C 82.1667,55.5 81.8333,55.5 81.5,55.5C 82.5686,53.0313 83.9019,50.6979 85.5,48.5C 88.2895,46.3595 91.2895,44.6928 94.5,43.5 Z"/></g>
<g><path style="opacity:1" fill="#739ec2" d="M 94.5,42.5 C 98.9811,41.3516 103.648,41.1849 108.5,42C 111.215,42.8747 112.548,44.7081 112.5,47.5C 111.833,47.5 111.167,47.5 110.5,47.5C 109.738,45.7376 108.404,44.7376 106.5,44.5C 106.389,43.8826 106.056,43.3826 105.5,43C 101.848,42.5014 98.1817,42.3347 94.5,42.5 Z"/></g>
<g><path style="opacity:1" fill="#73a1c4" d="M 94.5,42.5 C 94.5,42.8333 94.5,43.1667 94.5,43.5C 91.2895,44.6928 88.2895,46.3595 85.5,48.5C 83.5695,48.7706 82.2362,49.7706 81.5,51.5C 81.2196,48.6118 82.5529,47.1118 85.5,47C 87.1288,43.0341 90.1288,41.5341 94.5,42.5 Z"/></g>
<g><path style="opacity:1" fill="#a7bdd2" d="M 94.5,43.5 C 94.5,43.1667 94.5,42.8333 94.5,42.5C 98.1817,42.3347 101.848,42.5014 105.5,43C 106.056,43.3826 106.389,43.8826 106.5,44.5C 102.566,43.6403 98.5662,43.307 94.5,43.5 Z"/></g>
<g><path style="opacity:1" fill="#becfdf" d="M 110.5,47.5 C 111.167,47.5 111.833,47.5 112.5,47.5C 112.5,47.8333 112.5,48.1667 112.5,48.5C 114.252,50.2459 115.585,52.2459 116.5,54.5C 116.167,54.5 115.833,54.5 115.5,54.5C 114.5,52.8333 113.167,51.5 111.5,50.5C 110.89,49.609 110.557,48.609 110.5,47.5 Z"/></g>
<g><path style="opacity:1" fill="#d8dfe7" d="M 155.5,46.5 C 156.966,47.347 157.8,48.6803 158,50.5C 158.5,58.1594 158.666,65.8261 158.5,73.5C 157.905,77.6148 156.905,81.6148 155.5,85.5C 154.935,87.42 153.935,89.0867 152.5,90.5C 152.5,88.8333 152.5,87.1667 152.5,85.5C 153.167,85.5 153.5,85.1667 153.5,84.5C 155.411,80.767 156.744,76.767 157.5,72.5C 157.915,63.6951 157.248,55.0285 155.5,46.5 Z"/></g>
<g><path style="opacity:1" fill="#6296bd" d="M 112.5,48.5 C 112.5,48.1667 112.5,47.8333 112.5,47.5C 114.167,47.5 115.833,47.5 117.5,47.5C 119.504,50.8564 121.004,54.5231 122,58.5C 122.648,63.2041 122.481,67.8708 121.5,72.5C 120.167,73.1667 118.833,73.8333 117.5,74.5C 117.5,74.1667 117.5,73.8333 117.5,73.5C 117.5,73.1667 117.5,72.8333 117.5,72.5C 121.6,65.537 121.433,58.537 117,51.5C 115.871,49.8588 114.371,48.8588 112.5,48.5 Z"/></g>
<g><path style="opacity:1" fill="#acbdd1" d="M 153.5,44.5 C 154.167,45.1667 154.833,45.8333 155.5,46.5C 157.248,55.0285 157.915,63.6951 157.5,72.5C 156.313,74.0725 155.313,75.7392 154.5,77.5C 154.5,76.1667 154.5,74.8333 154.5,73.5C 156.026,70.2291 156.692,66.7291 156.5,63C 154.777,56.9822 153.777,50.8156 153.5,44.5 Z"/></g>
<g><path style="opacity:1" fill="#7fa1c2" d="M 152.5,44.5 C 152.833,44.5 153.167,44.5 153.5,44.5C 153.777,50.8156 154.777,56.9822 156.5,63C 156.692,66.7291 156.026,70.2291 154.5,73.5C 153.833,75.1667 153.167,76.8333 152.5,78.5C 152.5,77.5 152.5,76.5 152.5,75.5C 152.5,73.8333 152.5,72.1667 152.5,70.5C 156.409,65.1849 156.409,59.8515 152.5,54.5C 152.5,54.1667 152.5,53.8333 152.5,53.5C 152.5,50.5 152.5,47.5 152.5,44.5 Z"/></g>
<g><path style="opacity:1" fill="#4b8fc3" d="M 49.5,41.5 C 49.1667,45.5 48.8333,49.5 48.5,53.5C 46.4711,58.416 46.1377,63.416 47.5,68.5C 48.7359,74.0566 49.4026,79.7232 49.5,85.5C 49.1667,85.5 48.8333,85.5 48.5,85.5C 48.5567,80.4688 47.5567,75.8021 45.5,71.5C 44.1667,65.8333 44.1667,60.1667 45.5,54.5C 45.5,54.1667 45.5,53.8333 45.5,53.5C 47.1429,49.5914 48.4763,45.5914 49.5,41.5 Z"/></g>
<g><path style="opacity:1" fill="#96b3cd" d="M 85.5,48.5 C 83.9019,50.6979 82.5686,53.0313 81.5,55.5C 81.1667,55.5 80.8333,55.5 80.5,55.5C 80.5,54.5 80.5,53.5 80.5,52.5C 80.5,51.8333 80.8333,51.5 81.5,51.5C 82.2362,49.7706 83.5695,48.7706 85.5,48.5 Z"/></g>
<g><path style="opacity:1" fill="#bac7d7" d="M 42.5,51.5 C 42.5,52.8333 42.5,54.1667 42.5,55.5C 41.6618,55.8417 41.3284,56.5084 41.5,57.5C 41.1667,57.5 40.8333,57.5 40.5,57.5C 40.5,56.1667 40.5,54.8333 40.5,53.5C 41.1667,52.8333 41.8333,52.1667 42.5,51.5 Z"/></g>
<g><path style="opacity:1" fill="#3d8dcc" d="M 83.5,85.5 C 88.5901,87.56 93.7568,89.56 99,91.5C 103.266,89.377 107.766,87.877 112.5,87C 113.373,85.955 114.373,85.1217 115.5,84.5C 116.568,85.4345 117.901,85.7678 119.5,85.5C 110.287,92.0044 99.9533,93.8377 88.5,91C 87.0337,90.3645 85.7003,89.5312 84.5,88.5C 83.7025,88.9569 83.3691,89.6236 83.5,90.5C 79.562,88.8772 76.2287,86.5438 73.5,83.5C 72.1034,79.7172 69.9367,76.3838 67,73.5C 66.023,71.26 65.523,68.9267 65.5,66.5C 62.1667,66.5 58.8333,66.5 55.5,66.5C 53.8187,74.5964 54.8187,82.0964 58.5,89C 58.3333,89.5 58.1667,90 58,90.5C 57.5814,89.3279 56.9147,88.3279 56,87.5C 56.8409,91.3694 57.5075,95.3694 58,99.5C 61.0436,106.001 64.2103,112.334 67.5,118.5C 68.4067,120.657 69.0733,122.99 69.5,125.5C 68.2311,122.574 66.3977,119.908 64,117.5C 63.9386,114.723 62.772,112.723 60.5,111.5C 57.4778,103.111 54.1445,94.7772 50.5,86.5C 51.9311,86.1193 52.7645,85.1193 53,83.5C 53.6271,77.8153 53.4604,72.1486 52.5,66.5C 52.711,62.8721 53.711,59.5387 55.5,56.5C 58.8333,56.5 62.1667,56.5 65.5,56.5C 66.2626,67.4063 70.4293,76.7396 78,84.5C 78.3333,84.1667 78.6667,83.8333 79,83.5C 80.049,85.1066 81.549,85.7733 83.5,85.5 Z"/></g>
<g><path style="opacity:1" fill="#3b8ecd" d="M 146.5,86.5 C 144.622,90.5882 142.622,94.5882 140.5,98.5C 140.307,94.993 140.973,91.6596 142.5,88.5C 142.333,88.1667 142.167,87.8333 142,87.5C 141.085,88.3279 140.419,89.3279 140,90.5C 139.833,90 139.667,89.5 139.5,89C 143.181,82.0964 144.181,74.5964 142.5,66.5C 139.167,66.5 135.833,66.5 132.5,66.5C 132.6,69.667 131.933,72.667 130.5,75.5C 128.24,77.1768 126.573,79.3434 125.5,82C 124.552,82.4828 123.552,82.6495 122.5,82.5C 124.73,81.225 126.063,79.225 126.5,76.5C 127.325,75.6143 128.325,75.281 129.5,75.5C 130.593,69.1841 131.593,62.8508 132.5,56.5C 135.833,56.5 139.167,56.5 142.5,56.5C 143.044,58.5795 143.878,60.5795 145,62.5C 145.294,67.3308 145.127,72.1642 144.5,77C 144.328,80.4774 144.994,83.644 146.5,86.5 Z"/></g>
<g><path style="opacity:1" fill="#92b2cc" d="M 112.5,48.5 C 114.371,48.8588 115.871,49.8588 117,51.5C 121.433,58.537 121.6,65.537 117.5,72.5C 117.5,72.1667 117.5,71.8333 117.5,71.5C 117.786,65.7414 117.452,60.0748 116.5,54.5C 115.585,52.2459 114.252,50.2459 112.5,48.5 Z"/></g>
<g><path style="opacity:1" fill="#709ec2" d="M 80.5,52.5 C 80.5,53.5 80.5,54.5 80.5,55.5C 80.5,55.8333 80.5,56.1667 80.5,56.5C 78.7501,60.1829 78.0834,64.1829 78.5,68.5C 77.8333,68.5 77.1667,68.5 76.5,68.5C 75.8806,62.5185 77.214,57.1851 80.5,52.5 Z"/></g>
<g><path style="opacity:1" fill="#d3dee8" d="M 80.5,55.5 C 80.8333,55.5 81.1667,55.5 81.5,55.5C 81.8333,55.5 82.1667,55.5 82.5,55.5C 82.1786,61.0262 82.5119,66.3595 83.5,71.5C 83.5,72.1667 83.5,72.8333 83.5,73.5C 82.8333,73.1667 82.1667,72.8333 81.5,72.5C 80.6576,67.213 80.3243,61.8797 80.5,56.5C 80.5,56.1667 80.5,55.8333 80.5,55.5 Z"/></g>
<g><path style="opacity:1" fill="#eff2f5" d="M 155.5,42.5 C 157.163,44.4927 158.33,46.8261 159,49.5C 159.823,57.6775 159.656,65.6775 158.5,73.5C 158.666,65.8261 158.5,58.1594 158,50.5C 157.8,48.6803 156.966,47.347 155.5,46.5C 155.5,45.1667 155.5,43.8333 155.5,42.5 Z"/></g>
<g><path style="opacity:1" fill="#d0d8e2" d="M 40.5,53.5 C 40.5,54.8333 40.5,56.1667 40.5,57.5C 40.3342,62.1785 40.5008,66.8452 41,71.5C 41.3736,73.4913 42.207,75.158 43.5,76.5C 43.5,76.8333 43.5,77.1667 43.5,77.5C 43.5,78.5 43.5,79.5 43.5,80.5C 42.1667,78.1667 40.8333,75.8333 39.5,73.5C 39.176,66.6457 39.5093,59.979 40.5,53.5 Z"/></g>
<g><path style="opacity:1" fill="#8eb0c9" d="M 80.5,56.5 C 80.3243,61.8797 80.6576,67.213 81.5,72.5C 81.5,72.8333 81.5,73.1667 81.5,73.5C 80.1103,72.1007 79.1103,70.4341 78.5,68.5C 78.0834,64.1829 78.7501,60.1829 80.5,56.5 Z"/></g>
<g><path style="opacity:1" fill="#6294c0" d="M 45.5,54.5 C 44.1667,60.1667 44.1667,65.8333 45.5,71.5C 45.5,72.1667 45.5,72.8333 45.5,73.5C 41.5102,67.1165 41.5102,60.7831 45.5,54.5 Z"/></g>
<g><path style="opacity:1" fill="#d0dce6" d="M 115.5,54.5 C 115.833,54.5 116.167,54.5 116.5,54.5C 117.452,60.0748 117.786,65.7414 117.5,71.5C 116.167,72.8333 114.833,74.1667 113.5,75.5C 115.335,68.6768 116.002,61.6768 115.5,54.5 Z"/></g>
<g><path style="opacity:1" fill="#5e93c0" d="M 152.5,54.5 C 156.409,59.8515 156.409,65.1849 152.5,70.5C 152.5,65.1667 152.5,59.8333 152.5,54.5 Z"/></g>
<g><path style="opacity:1" fill="#378bcc" d="M 73.5,83.5 C 71.2958,81.6385 68.6291,80.6385 65.5,80.5C 61.8075,79.7296 59.4741,81.0629 58.5,84.5C 58.6669,90.5868 60.1669,96.2535 63,101.5C 62.792,105.791 64.1253,109.458 67,112.5C 67.4955,114.473 67.6621,116.473 67.5,118.5C 64.2103,112.334 61.0436,106.001 58,99.5C 57.5075,95.3694 56.8409,91.3694 56,87.5C 56.9147,88.3279 57.5814,89.3279 58,90.5C 58.1667,90 58.3333,89.5 58.5,89C 54.8187,82.0964 53.8187,74.5964 55.5,66.5C 58.8333,66.5 62.1667,66.5 65.5,66.5C 65.523,68.9267 66.023,71.26 67,73.5C 69.9367,76.3838 72.1034,79.7172 73.5,83.5 Z"/></g>
<g><path style="opacity:1" fill="#388bcc" d="M 140.5,98.5 C 139.766,99.7079 139.433,101.041 139.5,102.5C 139.5,102.833 139.5,103.167 139.5,103.5C 137.956,106.557 135.789,109.224 133,111.5C 132.998,114.051 132.164,116.051 130.5,117.5C 130,113.836 131.167,110.836 134,108.5C 133.973,104.234 135.307,100.567 138,97.5C 138.579,92.4727 138.913,87.4727 139,82.5C 137.178,80.9546 135.011,80.288 132.5,80.5C 130.833,80.8333 129.167,81.1667 127.5,81.5C 124.915,83.4123 122.582,85.579 120.5,88C 116.8,88.8428 113.8,90.6761 111.5,93.5C 107.092,93.116 102.925,93.7826 99,95.5C 95.4117,93.8191 91.5784,93.1524 87.5,93.5C 86.205,92.5116 84.8717,91.5116 83.5,90.5C 83.3691,89.6236 83.7025,88.9569 84.5,88.5C 85.7003,89.5312 87.0337,90.3645 88.5,91C 99.9533,93.8377 110.287,92.0044 119.5,85.5C 120.728,84.6935 121.728,83.6935 122.5,82.5C 123.552,82.6495 124.552,82.4828 125.5,82C 126.573,79.3434 128.24,77.1768 130.5,75.5C 131.933,72.667 132.6,69.667 132.5,66.5C 135.833,66.5 139.167,66.5 142.5,66.5C 144.181,74.5964 143.181,82.0964 139.5,89C 139.667,89.5 139.833,90 140,90.5C 140.419,89.3279 141.085,88.3279 142,87.5C 142.167,87.8333 142.333,88.1667 142.5,88.5C 140.973,91.6596 140.307,94.993 140.5,98.5 Z"/></g>
<g><path style="opacity:1" fill="#86a4c3" d="M 45.5,50.5 C 45.5,51.5 45.5,52.5 45.5,53.5C 45.5,53.8333 45.5,54.1667 45.5,54.5C 41.5102,60.7831 41.5102,67.1165 45.5,73.5C 45.5,74.1667 45.5,74.8333 45.5,75.5C 45.5,77.8333 45.5,80.1667 45.5,82.5C 44.8333,80.8333 44.1667,79.1667 43.5,77.5C 43.5,77.1667 43.5,76.8333 43.5,76.5C 41.8182,70.3201 41.1515,63.9867 41.5,57.5C 41.3284,56.5084 41.6618,55.8417 42.5,55.5C 43.3127,53.7392 44.3127,52.0725 45.5,50.5 Z"/></g>
<g><path style="opacity:1" fill="#448abf" d="M 74.5,55.5 C 75.1667,59.8333 75.8333,64.1667 76.5,68.5C 76.4208,69.9305 76.7542,71.2638 77.5,72.5C 78.8376,74.2748 80.171,75.9414 81.5,77.5C 82.287,79.1042 83.6203,79.7709 85.5,79.5C 85.2729,81.9328 86.2729,83.5994 88.5,84.5C 88.6107,85.1174 88.944,85.6174 89.5,86C 95.7849,87.3554 102.118,87.6887 108.5,87C 111.524,85.4866 114.191,83.4866 116.5,81C 117.448,80.5172 118.448,80.3505 119.5,80.5C 118.167,81.8333 116.833,83.1667 115.5,84.5C 114.373,85.1217 113.373,85.955 112.5,87C 107.766,87.877 103.266,89.377 99,91.5C 93.7568,89.56 88.5901,87.56 83.5,85.5C 81.502,83.4002 79.3353,81.4002 77,79.5C 76.6667,77.5 76.3333,75.5 76,73.5C 74.1978,72.2107 73.0312,70.5441 72.5,68.5C 72.335,65.1501 72.5017,61.8168 73,58.5C 73.2321,57.2625 73.7321,56.2625 74.5,55.5 Z"/></g>
<g><path style="opacity:1" fill="#598eb5" d="M 76.5,68.5 C 77.1667,68.5 77.8333,68.5 78.5,68.5C 79.1103,70.4341 80.1103,72.1007 81.5,73.5C 81.5,73.8333 81.5,74.1667 81.5,74.5C 81.5,75.5 81.5,76.5 81.5,77.5C 80.171,75.9414 78.8376,74.2748 77.5,72.5C 76.7542,71.2638 76.4208,69.9305 76.5,68.5 Z"/></g>
<g><path style="opacity:1" fill="#abbbce" d="M 40.5,57.5 C 40.8333,57.5 41.1667,57.5 41.5,57.5C 41.1515,63.9867 41.8182,70.3201 43.5,76.5C 42.207,75.158 41.3736,73.4913 41,71.5C 40.5008,66.8452 40.3342,62.1785 40.5,57.5 Z"/></g>
<g><path style="opacity:1" fill="#bbcddb" d="M 81.5,72.5 C 82.1667,72.8333 82.8333,73.1667 83.5,73.5C 84.1667,73.5 84.5,73.8333 84.5,74.5C 84.8333,75.1667 85.1667,75.8333 85.5,76.5C 83.9382,76.2671 82.6049,75.6005 81.5,74.5C 81.5,74.1667 81.5,73.8333 81.5,73.5C 81.5,73.1667 81.5,72.8333 81.5,72.5 Z"/></g>
<g><path style="opacity:1" fill="#498cc1" d="M 149.5,53.5 C 150.5,53.5 151.5,53.5 152.5,53.5C 152.5,53.8333 152.5,54.1667 152.5,54.5C 152.5,59.8333 152.5,65.1667 152.5,70.5C 152.5,72.1667 152.5,73.8333 152.5,75.5C 150.17,78.8333 148.837,82.6667 148.5,87C 145.49,90.3425 143.824,94.3425 143.5,99C 142.355,100.402 141.022,101.569 139.5,102.5C 139.433,101.041 139.766,99.7079 140.5,98.5C 142.622,94.5882 144.622,90.5882 146.5,86.5C 148.252,80.6803 149.586,74.6803 150.5,68.5C 151.862,63.416 151.529,58.416 149.5,53.5 Z"/></g>
<g><path style="opacity:1" fill="#9bb3c9" d="M 81.5,74.5 C 82.6049,75.6005 83.9382,76.2671 85.5,76.5C 86.5451,77.8776 87.8784,78.8776 89.5,79.5C 89.9528,80.4584 90.6195,81.2917 91.5,82C 96.4889,82.4993 101.489,82.6659 106.5,82.5C 102.03,83.4861 97.3633,83.8195 92.5,83.5C 89.3477,83.4287 87.0144,82.0954 85.5,79.5C 84.4863,78.3263 83.153,77.6596 81.5,77.5C 81.5,76.5 81.5,75.5 81.5,74.5 Z"/></g>
<g><path style="opacity:1" fill="#7a9dbd" d="M 117.5,73.5 C 117.5,73.8333 117.5,74.1667 117.5,74.5C 117.463,77.7016 115.797,79.3683 112.5,79.5C 114.196,77.4752 115.863,75.4752 117.5,73.5 Z"/></g>
<g><path style="opacity:1" fill="#c7d1dc" d="M 157.5,72.5 C 156.744,76.767 155.411,80.767 153.5,84.5C 153.448,82.0971 153.781,79.7638 154.5,77.5C 155.313,75.7392 156.313,74.0725 157.5,72.5 Z"/></g>
<g><path style="opacity:1" fill="#6892b5" d="M 81.5,77.5 C 83.153,77.6596 84.4863,78.3263 85.5,79.5C 83.6203,79.7709 82.287,79.1042 81.5,77.5 Z"/></g>
<g><path style="opacity:1" fill="#c4d4e0" d="M 111.5,77.5 C 110.415,79.5869 108.749,80.9202 106.5,81.5C 107.585,79.4131 109.251,78.0798 111.5,77.5 Z"/></g>
<g><path style="opacity:1" fill="#3587cb" d="M 73.5,83.5 C 76.2287,86.5438 79.562,88.8772 83.5,90.5C 84.8717,91.5116 86.205,92.5116 87.5,93.5C 85.4727,93.6621 83.4727,93.4955 81.5,93C 80.0226,90.8515 78.0226,89.5182 75.5,89C 70.5111,88.5007 65.5111,88.3341 60.5,88.5C 62.7603,93.869 64.2603,99.5356 65,105.5C 67.5277,108.098 69.0277,111.098 69.5,114.5C 72.432,121.463 75.2654,128.463 78,135.5C 79,136.833 80,138.167 81,139.5C 82.4889,144.783 83.9889,150.116 85.5,155.5C 85.1667,155.5 84.8333,155.5 84.5,155.5C 80.2396,145 75.2396,135 69.5,125.5C 69.0733,122.99 68.4067,120.657 67.5,118.5C 67.6621,116.473 67.4955,114.473 67,112.5C 64.1253,109.458 62.792,105.791 63,101.5C 60.1669,96.2535 58.6669,90.5868 58.5,84.5C 59.4741,81.0629 61.8075,79.7296 65.5,80.5C 68.6291,80.6385 71.2958,81.6385 73.5,83.5 Z"/></g>
<g><path style="opacity:1" fill="#eaeff3" d="M 84.5,74.5 C 87.7777,75.8089 90.7777,77.6422 93.5,80C 97.5,80.6667 101.5,80.6667 105.5,80C 107.487,77.283 110.153,75.783 113.5,75.5C 113.167,76.5 112.5,77.1667 111.5,77.5C 109.251,78.0798 107.585,79.4131 106.5,81.5C 100.582,82.011 94.9151,81.3443 89.5,79.5C 87.8784,78.8776 86.5451,77.8776 85.5,76.5C 85.1667,75.8333 84.8333,75.1667 84.5,74.5 Z"/></g>
<g><path style="opacity:1" fill="#a2b9ce" d="M 117.5,71.5 C 117.5,71.8333 117.5,72.1667 117.5,72.5C 117.5,72.8333 117.5,73.1667 117.5,73.5C 115.863,75.4752 114.196,77.4752 112.5,79.5C 110.947,81.385 108.947,82.385 106.5,82.5C 106.5,82.1667 106.5,81.8333 106.5,81.5C 108.749,80.9202 110.415,79.5869 111.5,77.5C 112.5,77.1667 113.167,76.5 113.5,75.5C 114.833,74.1667 116.167,72.8333 117.5,71.5 Z"/></g>
<g><path style="opacity:1" fill="#3487cc" d="M 130.5,117.5 C 128.93,119.851 128.097,122.518 128,125.5C 124.603,127.558 122.937,130.558 123,134.5C 119.613,136.943 118.113,140.276 118.5,144.5C 117.833,144.5 117.167,144.5 116.5,144.5C 117.359,139.664 118.692,134.997 120.5,130.5C 124.766,122.012 128.933,113.345 133,104.5C 133.897,98.8997 135.397,93.5664 137.5,88.5C 132.489,88.3341 127.489,88.5007 122.5,89C 120.139,89.1968 118.472,90.3635 117.5,92.5C 115.604,93.4656 113.604,93.7989 111.5,93.5C 113.8,90.6761 116.8,88.8428 120.5,88C 122.582,85.579 124.915,83.4123 127.5,81.5C 129.167,81.1667 130.833,80.8333 132.5,80.5C 135.011,80.288 137.178,80.9546 139,82.5C 138.913,87.4727 138.579,92.4727 138,97.5C 135.307,100.567 133.973,104.234 134,108.5C 131.167,110.836 130,113.836 130.5,117.5 Z"/></g>
<g><path style="opacity:1" fill="#d5dde5" d="M 89.5,79.5 C 94.9151,81.3443 100.582,82.011 106.5,81.5C 106.5,81.8333 106.5,82.1667 106.5,82.5C 101.489,82.6659 96.4889,82.4993 91.5,82C 90.6195,81.2917 89.9528,80.4584 89.5,79.5 Z"/></g>
<g><path style="opacity:1" fill="#4685b5" d="M 121.5,72.5 C 121.5,73.8333 121.5,75.1667 121.5,76.5C 120.326,77.5137 119.66,78.847 119.5,80.5C 118.448,80.3505 117.448,80.5172 116.5,81C 114.191,83.4866 111.524,85.4866 108.5,87C 102.118,87.6887 95.7849,87.3554 89.5,86C 88.944,85.6174 88.6107,85.1174 88.5,84.5C 89.8333,84.5 91.1667,84.5 92.5,84.5C 97.8437,84.666 103.177,84.4994 108.5,84C 111.106,83.5495 112.439,82.0495 112.5,79.5C 115.797,79.3683 117.463,77.7016 117.5,74.5C 118.833,73.8333 120.167,73.1667 121.5,72.5 Z"/></g>
<g><path style="opacity:1" fill="#96abc3" d="M 154.5,73.5 C 154.5,74.8333 154.5,76.1667 154.5,77.5C 153.781,79.7638 153.448,82.0971 153.5,84.5C 153.5,85.1667 153.167,85.5 152.5,85.5C 152.5,83.1667 152.5,80.8333 152.5,78.5C 153.167,76.8333 153.833,75.1667 154.5,73.5 Z"/></g>
<g><path style="opacity:1" fill="#4a85b4" d="M 45.5,71.5 C 47.5567,75.8021 48.5567,80.4688 48.5,85.5C 46.8813,82.4521 45.8813,79.1188 45.5,75.5C 45.5,74.8333 45.5,74.1667 45.5,73.5C 45.5,72.8333 45.5,72.1667 45.5,71.5 Z"/></g>
<g><path style="opacity:1" fill="#618db2" d="M 85.5,79.5 C 87.0144,82.0954 89.3477,83.4287 92.5,83.5C 92.5,83.8333 92.5,84.1667 92.5,84.5C 91.1667,84.5 89.8333,84.5 88.5,84.5C 86.2729,83.5994 85.2729,81.9328 85.5,79.5 Z"/></g>
<g><path style="opacity:1" fill="#7f9eb9" d="M 112.5,79.5 C 112.439,82.0495 111.106,83.5495 108.5,84C 103.177,84.4994 97.8437,84.666 92.5,84.5C 92.5,84.1667 92.5,83.8333 92.5,83.5C 97.3633,83.8195 102.03,83.4861 106.5,82.5C 108.947,82.385 110.947,81.385 112.5,79.5 Z"/></g>
<g><path style="opacity:1" fill="#b6c2d1" d="M 43.5,77.5 C 44.1667,79.1667 44.8333,80.8333 45.5,82.5C 45.5,84.1667 45.5,85.8333 45.5,87.5C 46.1667,89.1667 46.8333,90.8333 47.5,92.5C 46.5416,92.0472 45.7083,91.3805 45,90.5C 44.1744,87.2072 43.6744,83.8738 43.5,80.5C 43.5,79.5 43.5,78.5 43.5,77.5 Z"/></g>
<g><path style="opacity:1" fill="#5f8cb5" d="M 45.5,75.5 C 45.8813,79.1188 46.8813,82.4521 48.5,85.5C 48.8333,85.5 49.1667,85.5 49.5,85.5C 49.6287,87.2161 49.962,88.8828 50.5,90.5C 48.9991,89.2485 47.3325,88.2485 45.5,87.5C 45.5,85.8333 45.5,84.1667 45.5,82.5C 45.5,80.1667 45.5,77.8333 45.5,75.5 Z"/></g>
<g><path style="opacity:1" fill="#e5e9ee" d="M 39.5,73.5 C 40.8333,75.8333 42.1667,78.1667 43.5,80.5C 43.6744,83.8738 44.1744,87.2072 45,90.5C 45.7083,91.3805 46.5416,92.0472 47.5,92.5C 48.5778,95.4021 49.2444,98.4021 49.5,101.5C 49.5,102.833 49.5,104.167 49.5,105.5C 48.2256,100.607 46.059,95.9399 43,91.5C 42.8195,88.3054 42.3195,85.3054 41.5,82.5C 40.5392,79.5739 39.8726,76.5739 39.5,73.5 Z"/></g>
<g><path style="opacity:1" fill="#2e85cb" d="M 87.5,93.5 C 91.5784,93.1524 95.4117,93.8191 99,95.5C 102.925,93.7826 107.092,93.116 111.5,93.5C 113.604,93.7989 115.604,93.4656 117.5,92.5C 118.472,90.3635 120.139,89.1968 122.5,89C 127.489,88.5007 132.489,88.3341 137.5,88.5C 135.397,93.5664 133.897,98.8997 133,104.5C 128.933,113.345 124.766,122.012 120.5,130.5C 120.34,128.801 120.506,127.134 121,125.5C 123.002,121.542 125.002,117.542 127,113.5C 127.497,111.19 127.663,108.857 127.5,106.5C 108.488,106.167 89.4883,106.5 70.5,107.5C 69.6258,109.747 69.2924,112.08 69.5,114.5C 69.0277,111.098 67.5277,108.098 65,105.5C 64.2603,99.5356 62.7603,93.869 60.5,88.5C 65.5111,88.3341 70.5111,88.5007 75.5,89C 78.0226,89.5182 80.0226,90.8515 81.5,93C 83.4727,93.4955 85.4727,93.6621 87.5,93.5 Z"/></g>
<g><path style="opacity:1" fill="#7a99ba" d="M 151.5,87.5 C 149.572,89.7808 148.572,92.4475 148.5,95.5C 148.167,95.5 147.833,95.5 147.5,95.5C 147.5,94.5 147.5,93.5 147.5,92.5C 148.08,90.2512 149.413,88.5846 151.5,87.5 Z"/></g>
<g><path style="opacity:1" fill="#edeff2" d="M 155.5,85.5 C 155.662,87.5273 155.495,89.5273 155,91.5C 152.536,95.4339 150.369,99.4339 148.5,103.5C 148.5,102.833 148.5,102.167 148.5,101.5C 148.5,100.833 148.5,100.167 148.5,99.5C 149.823,96.5428 151.157,93.5428 152.5,90.5C 153.935,89.0867 154.935,87.42 155.5,85.5 Z"/></g>
<g><path style="opacity:1" fill="#819ebd" d="M 45.5,87.5 C 47.3325,88.2485 48.9991,89.2485 50.5,90.5C 50.5,90.8333 50.5,91.1667 50.5,91.5C 50.5,92.5 50.5,93.5 50.5,94.5C 49.5,93.8333 48.5,93.1667 47.5,92.5C 46.8333,90.8333 46.1667,89.1667 45.5,87.5 Z"/></g>
<g><path style="opacity:1" fill="#9aadc4" d="M 152.5,85.5 C 152.5,87.1667 152.5,88.8333 152.5,90.5C 150.461,91.6718 149.128,93.3384 148.5,95.5C 148.572,92.4475 149.572,89.7808 151.5,87.5C 151.328,86.5084 151.662,85.8417 152.5,85.5 Z"/></g>
<g><path style="opacity:1" fill="#c3cdd8" d="M 152.5,90.5 C 151.157,93.5428 149.823,96.5428 148.5,99.5C 148.5,98.1667 148.5,96.8333 148.5,95.5C 149.128,93.3384 150.461,91.6718 152.5,90.5 Z"/></g>
<g><path style="opacity:1" fill="#4886b9" d="M 49.5,85.5 C 50.1667,85.5 50.5,85.8333 50.5,86.5C 54.1445,94.7772 57.4778,103.111 60.5,111.5C 56.5876,109.009 54.7543,105.343 55,100.5C 54.3292,99.7476 53.4959,99.4142 52.5,99.5C 52.8893,96.4467 52.2227,93.78 50.5,91.5C 50.5,91.1667 50.5,90.8333 50.5,90.5C 49.962,88.8828 49.6287,87.2161 49.5,85.5 Z"/></g>
<g><path style="opacity:1" fill="#5482aa" d="M 50.5,91.5 C 52.2227,93.78 52.8893,96.4467 52.5,99.5C 51.8333,99.5 51.1667,99.5 50.5,99.5C 50.5,97.8333 50.5,96.1667 50.5,94.5C 50.5,93.5 50.5,92.5 50.5,91.5 Z"/></g>
<g><path style="opacity:1" fill="#5b85ac" d="M 147.5,92.5 C 147.5,93.5 147.5,94.5 147.5,95.5C 147.5,96.8333 147.5,98.1667 147.5,99.5C 146.833,99.5 146.167,99.5 145.5,99.5C 145.338,97.4727 145.505,95.4727 146,93.5C 146.383,92.944 146.883,92.6107 147.5,92.5 Z"/></g>
<g><path style="opacity:1" fill="#819dbb" d="M 50.5,99.5 C 51.1667,99.5 51.8333,99.5 52.5,99.5C 54.0808,101.142 54.7475,103.142 54.5,105.5C 53.6229,103.272 52.2896,101.272 50.5,99.5 Z"/></g>
<g><path style="opacity:1" fill="#a8b7c9" d="M 47.5,92.5 C 48.5,93.1667 49.5,93.8333 50.5,94.5C 50.5,96.1667 50.5,97.8333 50.5,99.5C 52.2896,101.272 53.6229,103.272 54.5,105.5C 54.7234,108.509 55.7234,111.176 57.5,113.5C 56.8501,113.196 56.1835,112.863 55.5,112.5C 54.0419,109.628 52.8752,106.628 52,103.5C 51.2917,102.619 50.4584,101.953 49.5,101.5C 49.2444,98.4021 48.5778,95.4021 47.5,92.5 Z"/></g>
<g><path style="opacity:1" fill="#aebbcb" d="M 147.5,95.5 C 147.833,95.5 148.167,95.5 148.5,95.5C 148.5,96.8333 148.5,98.1667 148.5,99.5C 148.5,100.167 148.5,100.833 148.5,101.5C 147.5,102.167 146.5,102.833 145.5,103.5C 145.733,101.938 146.4,100.605 147.5,99.5C 147.5,98.1667 147.5,96.8333 147.5,95.5 Z"/></g>
<g><path style="opacity:1" fill="#ced5de" d="M 148.5,101.5 C 148.5,102.167 148.5,102.833 148.5,103.5C 146.461,104.672 145.128,106.338 144.5,108.5C 144.366,106.708 144.699,105.042 145.5,103.5C 146.5,102.833 147.5,102.167 148.5,101.5 Z"/></g>
<g><path style="opacity:1" fill="#d7dde4" d="M 49.5,101.5 C 50.4584,101.953 51.2917,102.619 52,103.5C 52.8752,106.628 54.0419,109.628 55.5,112.5C 56.1835,112.863 56.8501,113.196 57.5,113.5C 57.7959,115.403 58.4625,117.07 59.5,118.5C 59.5,119.833 59.5,121.167 59.5,122.5C 58.8333,122.167 58.1667,121.833 57.5,121.5C 57.6567,120.127 57.49,118.793 57,117.5C 54.3872,114.676 52.7206,111.342 52,107.5C 51.2917,106.619 50.4584,105.953 49.5,105.5C 49.5,104.167 49.5,102.833 49.5,101.5 Z"/></g>
<g><path style="opacity:1" fill="#96aac2" d="M 145.5,99.5 C 146.167,99.5 146.833,99.5 147.5,99.5C 146.4,100.605 145.733,101.938 145.5,103.5C 144.699,105.042 144.366,106.708 144.5,108.5C 143.833,108.833 143.167,109.167 142.5,109.5C 142.307,105.752 143.307,102.418 145.5,99.5 Z"/></g>
<g><path style="opacity:1" fill="#2980ca" d="M 120.5,130.5 C 118.692,134.997 117.359,139.664 116.5,144.5C 112.679,151.473 108.846,158.473 105,165.5C 104.505,167.473 104.338,169.473 104.5,171.5C 103.286,173.149 101.953,174.815 100.5,176.5C 99.7022,178.078 99.2022,179.744 99,181.5C 93.9119,173.198 89.4119,164.531 85.5,155.5C 83.9889,150.116 82.4889,144.783 81,139.5C 80,138.167 79,136.833 78,135.5C 75.2654,128.463 72.432,121.463 69.5,114.5C 69.2924,112.08 69.6258,109.747 70.5,107.5C 89.4883,106.5 108.488,106.167 127.5,106.5C 127.663,108.857 127.497,111.19 127,113.5C 125.002,117.542 123.002,121.542 121,125.5C 120.506,127.134 120.34,128.801 120.5,130.5 Z"/></g>
<g><path style="opacity:1" fill="#7293b5" d="M 142.5,109.5 C 142.5,109.833 142.5,110.167 142.5,110.5C 139.224,111.122 137.891,113.122 138.5,116.5C 138.672,117.492 138.338,118.158 137.5,118.5C 137.5,116.167 137.5,113.833 137.5,111.5C 138.82,110.058 140.486,109.392 142.5,109.5 Z"/></g>
<g><path style="opacity:1" fill="#5086b4" d="M 152.5,75.5 C 152.5,76.5 152.5,77.5 152.5,78.5C 152.5,80.8333 152.5,83.1667 152.5,85.5C 151.662,85.8417 151.328,86.5084 151.5,87.5C 149.413,88.5846 148.08,90.2512 147.5,92.5C 146.883,92.6107 146.383,92.944 146,93.5C 145.505,95.4727 145.338,97.4727 145.5,99.5C 143.307,102.418 142.307,105.752 142.5,109.5C 140.486,109.392 138.82,110.058 137.5,111.5C 139.046,109.118 139.713,106.451 139.5,103.5C 139.5,103.167 139.5,102.833 139.5,102.5C 141.022,101.569 142.355,100.402 143.5,99C 143.824,94.3425 145.49,90.3425 148.5,87C 148.837,82.6667 150.17,78.8333 152.5,75.5 Z"/></g>
<g><path style="opacity:1" fill="#6f93b6" d="M 52.5,99.5 C 53.4959,99.4142 54.3292,99.7476 55,100.5C 54.7543,105.343 56.5876,109.009 60.5,111.5C 60.5,112.167 60.5,112.833 60.5,113.5C 60.5,115.167 60.5,116.833 60.5,118.5C 60.1667,118.5 59.8333,118.5 59.5,118.5C 59.8799,116.302 59.2132,114.635 57.5,113.5C 55.7234,111.176 54.7234,108.509 54.5,105.5C 54.7475,103.142 54.0808,101.142 52.5,99.5 Z"/></g>
<g><path style="opacity:1" fill="#91a7c0" d="M 142.5,110.5 C 140.615,112.053 139.615,114.053 139.5,116.5C 139.167,116.5 138.833,116.5 138.5,116.5C 137.891,113.122 139.224,111.122 142.5,110.5 Z"/></g>
<g><path style="opacity:1" fill="#a1b2c6" d="M 57.5,113.5 C 59.2132,114.635 59.8799,116.302 59.5,118.5C 58.4625,117.07 57.7959,115.403 57.5,113.5 Z"/></g>
<g><path style="opacity:1" fill="#cfd6df" d="M 144.5,108.5 C 144.657,109.873 144.49,111.207 144,112.5C 142.212,114.76 140.712,117.093 139.5,119.5C 139.5,118.5 139.5,117.5 139.5,116.5C 139.615,114.053 140.615,112.053 142.5,110.5C 142.5,110.167 142.5,109.833 142.5,109.5C 143.167,109.167 143.833,108.833 144.5,108.5 Z"/></g>
<g><path style="opacity:1" fill="#eef1f3" d="M 148.5,103.5 C 147.027,106.993 145.86,110.66 145,114.5C 144,115.5 143,116.5 142,117.5C 140.074,123.067 137.741,128.4 135,133.5C 133.961,134.71 132.794,135.71 131.5,136.5C 132.167,134.833 132.833,133.167 133.5,131.5C 134.554,126.991 136.554,122.991 139.5,119.5C 140.712,117.093 142.212,114.76 144,112.5C 144.49,111.207 144.657,109.873 144.5,108.5C 145.128,106.338 146.461,104.672 148.5,103.5 Z"/></g>
<g><path style="opacity:1" fill="#3d84c0" d="M 139.5,103.5 C 139.713,106.451 139.046,109.118 137.5,111.5C 136.504,111.414 135.671,111.748 135,112.5C 134.505,114.473 134.338,116.473 134.5,118.5C 133.178,118.33 132.011,118.663 131,119.5C 129.748,122.014 129.248,124.68 129.5,127.5C 129.5,128.167 129.167,128.5 128.5,128.5C 127.85,128.804 127.183,129.137 126.5,129.5C 125.52,132.086 125.187,134.753 125.5,137.5C 121.687,141.39 119.354,146.057 118.5,151.5C 117.624,151.369 116.957,151.702 116.5,152.5C 114.726,156.389 112.726,160.055 110.5,163.5C 109.789,159.719 110.955,156.719 114,154.5C 115.505,151.105 117.005,147.771 118.5,144.5C 118.113,140.276 119.613,136.943 123,134.5C 122.937,130.558 124.603,127.558 128,125.5C 128.097,122.518 128.93,119.851 130.5,117.5C 132.164,116.051 132.998,114.051 133,111.5C 135.789,109.224 137.956,106.557 139.5,103.5 Z"/></g>
<g><path style="opacity:1" fill="#5281aa" d="M 60.5,113.5 C 61.7384,115.214 62.405,117.214 62.5,119.5C 61.8333,119.5 61.1667,119.5 60.5,119.5C 60.5,119.167 60.5,118.833 60.5,118.5C 60.5,116.833 60.5,115.167 60.5,113.5 Z"/></g>
<g><path style="opacity:1" fill="#4683b9" d="M 137.5,111.5 C 137.5,113.833 137.5,116.167 137.5,118.5C 135.596,118.738 134.262,119.738 133.5,121.5C 131.879,123.23 130.545,125.23 129.5,127.5C 129.248,124.68 129.748,122.014 131,119.5C 132.011,118.663 133.178,118.33 134.5,118.5C 134.338,116.473 134.505,114.473 135,112.5C 135.671,111.748 136.504,111.414 137.5,111.5 Z"/></g>
<g><path style="opacity:1" fill="#8fa5bf" d="M 60.5,119.5 C 61.1667,119.5 61.8333,119.5 62.5,119.5C 63.9331,121.558 64.5997,123.892 64.5,126.5C 63.2072,124.192 61.8739,121.858 60.5,119.5 Z"/></g>
<g><path style="opacity:1" fill="#7c98b9" d="M 137.5,118.5 C 137.5,119.167 137.5,119.833 137.5,120.5C 135.5,120.5 134.5,121.5 134.5,123.5C 134.5,124.167 134.167,124.5 133.5,124.5C 133.5,123.5 133.5,122.5 133.5,121.5C 134.262,119.738 135.596,118.738 137.5,118.5 Z"/></g>
<g><path style="opacity:1" fill="#b8c3d1" d="M 59.5,118.5 C 59.8333,118.5 60.1667,118.5 60.5,118.5C 60.5,118.833 60.5,119.167 60.5,119.5C 61.8739,121.858 63.2072,124.192 64.5,126.5C 64.3284,127.492 64.6618,128.158 65.5,128.5C 66.3403,130.853 67.6736,132.853 69.5,134.5C 69.5,135.5 69.5,136.5 69.5,137.5C 68.8333,136.833 68.1667,136.167 67.5,135.5C 66.8333,135.167 66.1667,134.833 65.5,134.5C 64.2422,131.228 63.0755,127.894 62,124.5C 61.2917,123.619 60.4584,122.953 59.5,122.5C 59.5,121.167 59.5,119.833 59.5,118.5 Z"/></g>
<g><path style="opacity:1" fill="#9aadc4" d="M 137.5,120.5 C 136.833,121.833 135.833,122.833 134.5,123.5C 134.5,121.5 135.5,120.5 137.5,120.5 Z"/></g>
<g><path style="opacity:1" fill="#5d87af" d="M 62.5,119.5 C 65.7701,121.445 67.4367,124.445 67.5,128.5C 66.8333,128.5 66.1667,128.5 65.5,128.5C 64.6618,128.158 64.3284,127.492 64.5,126.5C 64.5997,123.892 63.9331,121.558 62.5,119.5 Z"/></g>
<g><path style="opacity:1" fill="#ebeef1" d="M 57.5,121.5 C 58.1667,121.833 58.8333,122.167 59.5,122.5C 60.4584,122.953 61.2917,123.619 62,124.5C 63.0755,127.894 64.2422,131.228 65.5,134.5C 64.5041,134.586 63.6708,134.252 63,133.5C 61.7506,129.129 59.9172,125.129 57.5,121.5 Z"/></g>
<g><path style="opacity:1" fill="#247dc9" d="M 114.5,134.5 C 114.5,133.5 114.5,132.5 114.5,131.5C 104.167,131.5 93.8333,131.5 83.5,131.5C 83.5,132.5 83.5,133.5 83.5,134.5C 79.8263,132.779 78.4929,129.779 79.5,125.5C 92.5,125.5 105.5,125.5 118.5,125.5C 119.507,129.779 118.174,132.779 114.5,134.5 Z"/></g>
<g><path style="opacity:1" fill="#8ba2bb" d="M 133.5,125.5 C 133.851,128.812 132.518,131.145 129.5,132.5C 130.874,130.142 132.207,127.808 133.5,125.5 Z"/></g>
<g><path style="opacity:1" fill="#b8c3d2" d="M 138.5,116.5 C 138.833,116.5 139.167,116.5 139.5,116.5C 139.5,117.5 139.5,118.5 139.5,119.5C 136.554,122.991 134.554,126.991 133.5,131.5C 131.461,132.672 130.128,134.338 129.5,136.5C 129.5,135.167 129.5,133.833 129.5,132.5C 132.518,131.145 133.851,128.812 133.5,125.5C 133.5,125.167 133.5,124.833 133.5,124.5C 134.167,124.5 134.5,124.167 134.5,123.5C 135.833,122.833 136.833,121.833 137.5,120.5C 137.5,119.833 137.5,119.167 137.5,118.5C 138.338,118.158 138.672,117.492 138.5,116.5 Z"/></g>
<g><path style="opacity:1" fill="#227bc9" d="M 114.5,134.5 C 114.557,136.884 114.223,139.218 113.5,141.5C 110.515,148.441 107.682,155.441 105,162.5C 103,165.833 101,169.167 99,172.5C 91.6181,160.658 86.4514,147.991 83.5,134.5C 83.5,133.5 83.5,132.5 83.5,131.5C 93.8333,131.5 104.167,131.5 114.5,131.5C 114.5,132.5 114.5,133.5 114.5,134.5 Z"/></g>
<g><path style="opacity:1" fill="#4681b5" d="M 128.5,128.5 C 128.117,131.811 127.117,134.811 125.5,137.5C 125.187,134.753 125.52,132.086 126.5,129.5C 127.183,129.137 127.85,128.804 128.5,128.5 Z"/></g>
<g><path style="opacity:1" fill="#88a0bc" d="M 65.5,128.5 C 66.1667,128.5 66.8333,128.5 67.5,128.5C 68.3627,130.421 69.0293,132.421 69.5,134.5C 67.6736,132.853 66.3403,130.853 65.5,128.5 Z"/></g>
<g><path style="opacity:1" fill="#5c87af" d="M 133.5,121.5 C 133.5,122.5 133.5,123.5 133.5,124.5C 133.5,124.833 133.5,125.167 133.5,125.5C 132.207,127.808 130.874,130.142 129.5,132.5C 128.715,134.374 128.048,136.374 127.5,138.5C 125.5,138.5 124.5,139.5 124.5,141.5C 123.659,143.379 123.325,145.379 123.5,147.5C 121.225,148.111 119.559,149.445 118.5,151.5C 119.354,146.057 121.687,141.39 125.5,137.5C 127.117,134.811 128.117,131.811 128.5,128.5C 129.167,128.5 129.5,128.167 129.5,127.5C 130.545,125.23 131.879,123.23 133.5,121.5 Z"/></g>
<g><path style="opacity:1" fill="#96aac0" d="M 69.5,137.5 C 73.2772,139.721 74.9439,143.054 74.5,147.5C 73.2188,144 71.5522,140.667 69.5,137.5 Z"/></g>
<g><path style="opacity:1" fill="#e0e4ea" d="M 133.5,131.5 C 132.833,133.167 132.167,134.833 131.5,136.5C 130.215,140.696 128.548,144.696 126.5,148.5C 125.833,148.833 125.167,149.167 124.5,149.5C 124.363,145.404 125.863,142.071 129,139.5C 129.483,138.552 129.649,137.552 129.5,136.5C 130.128,134.338 131.461,132.672 133.5,131.5 Z"/></g>
<g><path style="opacity:1" fill="#859fbc" d="M 127.5,138.5 C 126.833,139.833 125.833,140.833 124.5,141.5C 124.5,139.5 125.5,138.5 127.5,138.5 Z"/></g>
<g><path style="opacity:1" fill="#a8b7c9" d="M 129.5,132.5 C 129.5,133.833 129.5,135.167 129.5,136.5C 129.649,137.552 129.483,138.552 129,139.5C 125.863,142.071 124.363,145.404 124.5,149.5C 123.167,150.5 121.833,151.5 120.5,152.5C 121.075,150.589 122.075,148.922 123.5,147.5C 123.325,145.379 123.659,143.379 124.5,141.5C 125.833,140.833 126.833,139.833 127.5,138.5C 128.048,136.374 128.715,134.374 129.5,132.5 Z"/></g>
<g><path style="opacity:1" fill="#1d77c8" d="M 89.5,144.5 C 95.8333,144.5 102.167,144.5 108.5,144.5C 109.117,148.495 107.951,151.828 105,154.5C 105.293,158.568 103.959,161.902 101,164.5C 100.333,166.5 99.6667,168.5 99,170.5C 98.4531,166.842 96.7864,163.842 94,161.5C 94.0285,157.304 92.6951,153.638 90,150.5C 89.5045,148.527 89.3379,146.527 89.5,144.5 Z"/></g>
<g><path style="opacity:1" fill="#889fbb" d="M 74.5,148.5 C 74.5,148.167 74.5,147.833 74.5,147.5C 76.8333,147.833 78.1667,149.167 78.5,151.5C 77.1667,150.5 75.8333,149.5 74.5,148.5 Z"/></g>
<g><path style="opacity:1" fill="#4281b9" d="M 60.5,111.5 C 62.772,112.723 63.9386,114.723 64,117.5C 66.3977,119.908 68.2311,122.574 69.5,125.5C 75.2396,135 80.2396,145 84.5,155.5C 84.5,156.167 84.5,156.833 84.5,157.5C 80.83,151.794 77.4967,145.794 74.5,139.5C 71.3775,136.964 69.7109,133.631 69.5,129.5C 69.0431,128.702 68.3764,128.369 67.5,128.5C 67.4367,124.445 65.7701,121.445 62.5,119.5C 62.405,117.214 61.7384,115.214 60.5,113.5C 60.5,112.833 60.5,112.167 60.5,111.5 Z"/></g>
<g><path style="opacity:1" fill="#abb9ca" d="M 74.5,148.5 C 75.8333,149.5 77.1667,150.5 78.5,151.5C 78.3284,152.492 78.6618,153.158 79.5,153.5C 79.5,154.833 79.5,156.167 79.5,157.5C 79.5,157.833 79.5,158.167 79.5,158.5C 78.2188,155 76.5522,151.667 74.5,148.5 Z"/></g>
<g><path style="opacity:1" fill="#8fa4be" d="M 123.5,147.5 C 122.075,148.922 121.075,150.589 120.5,152.5C 120.5,152.833 120.5,153.167 120.5,153.5C 118.898,157.095 116.898,160.429 114.5,163.5C 116.223,159.722 117.556,155.722 118.5,151.5C 119.559,149.445 121.225,148.111 123.5,147.5 Z"/></g>
<g><path style="opacity:1" fill="#d0d6df" d="M 67.5,135.5 C 68.1667,136.167 68.8333,136.833 69.5,137.5C 71.5522,140.667 73.2188,144 74.5,147.5C 74.5,147.833 74.5,148.167 74.5,148.5C 76.5522,151.667 78.2188,155 79.5,158.5C 81.539,159.672 82.8724,161.338 83.5,163.5C 83.461,166.089 84.461,168.089 86.5,169.5C 86.5,170.833 86.5,172.167 86.5,173.5C 85.8333,173.167 85.1667,172.833 84.5,172.5C 79.8625,163.771 75.6958,154.771 72,145.5C 71.2917,144.619 70.4584,143.953 69.5,143.5C 68.2504,140.994 67.5838,138.327 67.5,135.5 Z"/></g>
<g><path style="opacity:1" fill="#d8dde4" d="M 124.5,149.5 C 123.126,151.858 121.793,154.192 120.5,156.5C 120.5,155.5 120.5,154.5 120.5,153.5C 120.5,153.167 120.5,152.833 120.5,152.5C 121.833,151.5 123.167,150.5 124.5,149.5 Z"/></g>
<g><path style="opacity:1" fill="#3381c5" d="M 116.5,144.5 C 117.167,144.5 117.833,144.5 118.5,144.5C 117.005,147.771 115.505,151.105 114,154.5C 110.955,156.719 109.789,159.719 110.5,163.5C 108.983,163.511 107.816,164.177 107,165.5C 106.76,167.852 105.927,169.852 104.5,171.5C 104.338,169.473 104.505,167.473 105,165.5C 108.846,158.473 112.679,151.473 116.5,144.5 Z"/></g>
<g><path style="opacity:1" fill="#6f8fb0" d="M 79.5,153.5 C 80.3446,154.671 81.0113,156.005 81.5,157.5C 80.8333,157.5 80.1667,157.5 79.5,157.5C 79.5,156.167 79.5,154.833 79.5,153.5 Z"/></g>
<g><path style="opacity:1" fill="#92a6bf" d="M 79.5,158.5 C 79.5,158.167 79.5,157.833 79.5,157.5C 80.1667,157.5 80.8333,157.5 81.5,157.5C 83.0808,159.142 83.7475,161.142 83.5,163.5C 82.8724,161.338 81.539,159.672 79.5,158.5 Z"/></g>
<g><path style="opacity:1" fill="#bcc6d3" d="M 120.5,153.5 C 120.5,154.5 120.5,155.5 120.5,156.5C 117.554,159.991 115.554,163.991 114.5,168.5C 113.542,168.953 112.708,169.619 112,170.5C 111.434,172.723 110.6,174.723 109.5,176.5C 109.363,172.404 110.863,169.071 114,166.5C 114.483,165.552 114.649,164.552 114.5,163.5C 116.898,160.429 118.898,157.095 120.5,153.5 Z"/></g>
<g><path style="opacity:1" fill="#f0f2f5" d="M 69.5,143.5 C 70.4584,143.953 71.2917,144.619 72,145.5C 75.6958,154.771 79.8625,163.771 84.5,172.5C 83.5416,172.047 82.7083,171.381 82,170.5C 77.9148,161.387 73.7481,152.387 69.5,143.5 Z"/></g>
<g><path style="opacity:1" fill="#5a85b0" d="M 118.5,151.5 C 117.556,155.722 116.223,159.722 114.5,163.5C 113.061,165.36 111.395,167.027 109.5,168.5C 110.038,166.883 110.371,165.216 110.5,163.5C 112.726,160.055 114.726,156.389 116.5,152.5C 116.957,151.702 117.624,151.369 118.5,151.5 Z"/></g>
<g><path style="opacity:1" fill="#5a84ae" d="M 67.5,128.5 C 68.3764,128.369 69.0431,128.702 69.5,129.5C 69.7109,133.631 71.3775,136.964 74.5,139.5C 77.4967,145.794 80.83,151.794 84.5,157.5C 88.3184,167.142 93.1518,176.142 99,184.5C 100.42,182.271 102.253,180.604 104.5,179.5C 104.5,180.167 104.5,180.833 104.5,181.5C 101.644,184.005 99.6442,187.005 98.5,190.5C 97.8863,187.083 96.2196,184.416 93.5,182.5C 94.1089,179.122 92.7756,177.122 89.5,176.5C 89.1667,174.5 88.8333,172.5 88.5,170.5C 87.2141,167.883 85.5475,165.55 83.5,163.5C 83.7475,161.142 83.0808,159.142 81.5,157.5C 81.0113,156.005 80.3446,154.671 79.5,153.5C 78.6618,153.158 78.3284,152.492 78.5,151.5C 78.1667,149.167 76.8333,147.833 74.5,147.5C 74.9439,143.054 73.2772,139.721 69.5,137.5C 69.5,136.5 69.5,135.5 69.5,134.5C 69.0293,132.421 68.3627,130.421 67.5,128.5 Z"/></g>
<g><path style="opacity:1" fill="#889fbb" d="M 83.5,163.5 C 85.5475,165.55 87.2141,167.883 88.5,170.5C 87.8333,170.167 87.1667,169.833 86.5,169.5C 84.461,168.089 83.461,166.089 83.5,163.5 Z"/></g>
<g><path style="opacity:1" fill="#879eb9" d="M 114.5,163.5 C 114.649,164.552 114.483,165.552 114,166.5C 110.863,169.071 109.363,172.404 109.5,176.5C 109.167,176.5 108.833,176.5 108.5,176.5C 108.401,173.763 108.735,171.096 109.5,168.5C 111.395,167.027 113.061,165.36 114.5,163.5 Z"/></g>
<g><path style="opacity:1" fill="#3a7db9" d="M 84.5,155.5 C 84.8333,155.5 85.1667,155.5 85.5,155.5C 89.4119,164.531 93.9119,173.198 99,181.5C 99.2022,179.744 99.7022,178.078 100.5,176.5C 101.953,174.815 103.286,173.149 104.5,171.5C 105.927,169.852 106.76,167.852 107,165.5C 107.816,164.177 108.983,163.511 110.5,163.5C 110.371,165.216 110.038,166.883 109.5,168.5C 106.197,171.311 104.53,174.978 104.5,179.5C 102.253,180.604 100.42,182.271 99,184.5C 93.1518,176.142 88.3184,167.142 84.5,157.5C 84.5,156.833 84.5,156.167 84.5,155.5 Z"/></g>
<g><path style="opacity:1" fill="#eff1f4" d="M 126.5,148.5 C 123.101,155.852 119.601,163.185 116,170.5C 114.961,171.71 113.794,172.71 112.5,173.5C 113.167,171.833 113.833,170.167 114.5,168.5C 115.554,163.991 117.554,159.991 120.5,156.5C 121.793,154.192 123.126,151.858 124.5,149.5C 125.167,149.167 125.833,148.833 126.5,148.5 Z"/></g>
<g><path style="opacity:1" fill="#5c86b1" d="M 109.5,168.5 C 108.735,171.096 108.401,173.763 108.5,176.5C 106.57,176.771 105.236,177.771 104.5,179.5C 104.53,174.978 106.197,171.311 109.5,168.5 Z"/></g>
<g><path style="opacity:1" fill="#8da3bd" d="M 89.5,176.5 C 92.7756,177.122 94.1089,179.122 93.5,182.5C 92.6229,180.272 91.2896,178.272 89.5,176.5 Z"/></g>
<g><path style="opacity:1" fill="#b4c0cf" d="M 86.5,169.5 C 87.1667,169.833 87.8333,170.167 88.5,170.5C 88.8333,172.5 89.1667,174.5 89.5,176.5C 91.2896,178.272 92.6229,180.272 93.5,182.5C 94.0427,185.038 95.0427,187.372 96.5,189.5C 93.2941,187.436 91.4608,184.436 91,180.5C 90.2917,179.619 89.4584,178.953 88.5,178.5C 88.2041,176.597 87.5375,174.93 86.5,173.5C 86.5,172.167 86.5,170.833 86.5,169.5 Z"/></g>
<g><path style="opacity:1" fill="#bdc7d4" d="M 108.5,176.5 C 108.833,176.5 109.167,176.5 109.5,176.5C 109.262,178.404 108.262,179.738 106.5,180.5C 106.733,178.938 107.4,177.605 108.5,176.5 Z"/></g>
<g><path style="opacity:1" fill="#dde2e8" d="M 114.5,168.5 C 113.833,170.167 113.167,171.833 112.5,173.5C 111.246,177.683 109.246,181.349 106.5,184.5C 106.5,183.5 106.5,182.5 106.5,181.5C 106.5,181.167 106.5,180.833 106.5,180.5C 108.262,179.738 109.262,178.404 109.5,176.5C 110.6,174.723 111.434,172.723 112,170.5C 112.708,169.619 113.542,168.953 114.5,168.5 Z"/></g>
<g><path style="opacity:1" fill="#eceef2" d="M 86.5,173.5 C 87.5375,174.93 88.2041,176.597 88.5,178.5C 89.1667,180.167 89.8333,181.833 90.5,183.5C 87.083,181.109 85.7497,177.775 86.5,173.5 Z"/></g>
<g><path style="opacity:1" fill="#9aacc2" d="M 108.5,176.5 C 107.4,177.605 106.733,178.938 106.5,180.5C 106.5,180.833 106.5,181.167 106.5,181.5C 105.833,182.167 105.167,182.833 104.5,183.5C 104.5,182.833 104.5,182.167 104.5,181.5C 104.5,180.833 104.5,180.167 104.5,179.5C 105.236,177.771 106.57,176.771 108.5,176.5 Z"/></g>
<g><path style="opacity:1" fill="#849cb5" d="M 93.5,182.5 C 96.2196,184.416 97.8863,187.083 98.5,190.5C 97.8333,190.167 97.1667,189.833 96.5,189.5C 95.0427,187.372 94.0427,185.038 93.5,182.5 Z"/></g>
<g><path style="opacity:1" fill="#7591b0" d="M 104.5,181.5 C 104.5,182.167 104.5,182.833 104.5,183.5C 102.674,185.147 101.34,187.147 100.5,189.5C 100.573,191.027 99.9063,192.027 98.5,192.5C 98.5,191.833 98.5,191.167 98.5,190.5C 99.6442,187.005 101.644,184.005 104.5,181.5 Z"/></g>
<g><path style="opacity:1" fill="#dadfe6" d="M 88.5,178.5 C 89.4584,178.953 90.2917,179.619 91,180.5C 91.4608,184.436 93.2941,187.436 96.5,189.5C 96.5,190.167 96.5,190.833 96.5,191.5C 94.8333,190.167 93.1667,188.833 91.5,187.5C 91.5674,186.041 91.2341,184.708 90.5,183.5C 89.8333,181.833 89.1667,180.167 88.5,178.5 Z"/></g>
<g><path style="opacity:1" fill="#93a6bc" d="M 104.5,183.5 C 104.378,186.292 103.044,188.292 100.5,189.5C 101.34,187.147 102.674,185.147 104.5,183.5 Z"/></g>
<g><path style="opacity:1" fill="#e9ecef" d="M 106.5,185.5 C 105.882,188.398 104.715,191.065 103,193.5C 102.329,194.252 101.496,194.586 100.5,194.5C 101.723,190.951 103.723,187.951 106.5,185.5 Z"/></g>
<g><path style="opacity:1" fill="#aab8c8" d="M 96.5,189.5 C 97.1667,189.833 97.8333,190.167 98.5,190.5C 98.5,191.167 98.5,191.833 98.5,192.5C 97.8333,192.167 97.1667,191.833 96.5,191.5C 96.5,190.833 96.5,190.167 96.5,189.5 Z"/></g>
<g><path style="opacity:1" fill="#c4cdd8" d="M 106.5,181.5 C 106.5,182.5 106.5,183.5 106.5,184.5C 106.5,184.833 106.5,185.167 106.5,185.5C 103.723,187.951 101.723,190.951 100.5,194.5C 98.0274,194.912 96.6941,193.912 96.5,191.5C 97.1667,191.833 97.8333,192.167 98.5,192.5C 99.9063,192.027 100.573,191.027 100.5,189.5C 103.044,188.292 104.378,186.292 104.5,183.5C 105.167,182.833 105.833,182.167 106.5,181.5 Z"/></g>
<g><path style="opacity:1" fill="#edeff2" d="M 91.5,187.5 C 93.1667,188.833 94.8333,190.167 96.5,191.5C 96.6941,193.912 98.0274,194.912 100.5,194.5C 99.8213,196.814 98.488,197.147 96.5,195.5C 94.7889,192.804 93.1223,190.138 91.5,187.5 Z"/></g>
</svg>
